<svg id="svg" version="1.1" xmlns="http://www.w3.org/2000/svg" xmlns:xlink="http://www.w3.org/1999/xlink" width="400" height="400" viewBox="0, 0, 400,400"><g id="svgg"><path id="path0" d="M190.625 77.964 C 189.873 78.050,187.588 78.313,185.547 78.546 C 136.392 84.172,94.776 124.503,87.029 174.023 C 85.850 181.560,85.741 201.603,86.841 208.594 C 98.433 282.229,173.596 325.913,241.971 298.754 C 245.791 297.237,261.360 289.632,263.005 288.479 C 264.449 287.468,264.587 287.580,278.841 301.304 C 295.969 317.794,297.350 319.028,299.251 319.540 C 303.216 320.608,307.124 317.467,307.091 313.237 C 307.069 310.446,307.363 310.786,290.759 294.396 C 282.521 286.265,275.781 279.429,275.781 279.206 C 275.781 278.983,278.198 276.318,281.152 273.285 C 307.712 246.015,318.839 212.143,313.441 175.000 C 307.082 131.254,273.598 93.113,232.031 82.268 C 218.818 78.821,200.074 76.872,190.625 77.964 M210.855 92.207 C 290.680 100.832,328.899 193.281,278.502 255.835 C 275.212 259.919,267.744 267.644,266.380 268.373 C 265.680 268.748,258.884 262.189,248.615 251.228 C 243.987 246.288,239.694 245.896,236.559 250.126 C 234.086 253.465,235.498 256.766,242.774 264.648 C 255.869 278.838,255.289 277.087,248.125 280.783 C 219.333 295.637,187.209 297.307,160.991 285.310 L 158.114 283.994 158.404 282.524 C 158.563 281.716,159.594 275.693,160.694 269.141 L 162.695 257.227 166.211 256.944 C 184.726 255.455,208.988 243.533,223.547 228.769 C 244.716 207.304,251.315 174.366,243.558 128.906 C 240.845 113.011,240.195 112.643,222.461 116.967 C 181.615 126.927,152.317 150.798,141.624 182.830 C 135.102 202.367,137.213 226.994,147.145 247.235 L 150.101 253.259 148.013 264.760 C 146.642 272.317,145.749 276.329,145.411 276.458 C 144.636 276.756,136.680 270.541,131.484 265.579 C 98.729 234.300,90.262 186.305,110.474 146.485 C 125.542 116.800,154.366 96.693,187.695 92.615 C 189.629 92.379,191.650 92.122,192.188 92.044 C 194.455 91.717,207.360 91.829,210.855 92.207 M230.035 130.387 C 230.670 131.575,231.978 139.082,232.576 144.975 C 237.157 190.139,224.261 218.708,191.846 235.201 C 182.569 239.921,169.632 243.847,167.565 242.570 C 166.893 242.155,168.275 238.274,172.110 229.808 C 180.745 210.746,190.932 193.476,204.756 174.465 C 210.382 166.728,210.910 164.213,207.567 161.060 C 203.883 157.586,201.423 159.079,192.557 170.172 C 179.471 186.545,167.308 207.106,158.790 227.254 C 155.775 234.385,155.638 234.485,154.404 230.439 C 140.935 186.260,171.259 142.939,224.228 130.689 C 229.244 129.528,229.566 129.512,230.035 130.387 " stroke="none" fill="#05442d" fill-rule="evenodd"></path><path id="path1" d="M0.000 200.000 L 0.000 400.000 200.000 400.000 L 400.000 400.000 400.000 200.000 L 400.000 0.000 200.000 0.000 L 0.000 0.000 0.000 200.000 M212.798 77.950 C 233.521 80.437,250.509 86.616,265.234 97.020 C 325.716 139.754,332.688 223.243,280.113 275.187 C 278.160 277.116,276.563 278.903,276.563 279.158 C 276.563 279.412,283.321 286.271,291.581 294.400 C 301.904 304.559,306.789 309.634,307.206 310.632 C 309.646 316.473,303.318 322.419,297.706 319.557 C 296.892 319.141,289.174 312.022,280.556 303.736 C 271.938 295.451,264.711 288.672,264.496 288.672 C 264.281 288.672,261.063 290.244,257.345 292.167 C 253.628 294.089,248.607 296.541,246.189 297.617 C 167.264 332.725,78.821 269.587,85.510 182.911 C 90.493 118.337,148.787 70.268,212.798 77.950 M193.359 92.586 C 120.767 98.148,78.465 173.618,111.614 238.424 C 118.361 251.615,130.417 265.484,142.888 274.400 C 145.514 276.278,145.108 277.168,147.474 264.359 L 149.512 253.320 147.075 248.438 C 118.979 192.136,151.838 134.007,221.608 116.586 C 241.214 111.690,241.767 112.115,245.060 134.578 C 246.927 147.315,247.071 149.343,247.048 162.500 C 246.999 191.204,240.852 210.331,226.462 226.563 C 215.515 238.910,196.319 250.454,178.764 255.246 C 174.498 256.411,172.218 256.831,165.268 257.734 L 163.152 258.009 161.026 270.850 C 159.275 281.420,158.993 283.750,159.430 284.031 C 160.658 284.819,168.356 287.600,172.775 288.851 C 198.176 296.046,225.105 292.754,249.461 279.478 C 253.498 277.277,253.474 277.322,251.653 275.303 C 250.825 274.384,247.344 270.551,243.918 266.785 C 235.214 257.219,234.097 255.334,235.116 251.933 C 235.999 248.985,239.147 246.499,241.992 246.503 C 244.449 246.507,246.039 247.814,255.751 257.813 C 261.073 263.291,265.568 267.835,265.740 267.910 C 265.913 267.985,267.997 266.139,270.372 263.808 C 316.635 218.407,308.340 141.252,253.516 107.019 C 236.936 96.666,213.497 91.042,193.359 92.586 M222.852 131.641 C 204.452 136.017,185.488 146.516,172.437 159.552 C 155.045 176.926,147.920 202.526,153.895 226.172 C 155.633 233.049,155.611 233.012,156.644 230.664 C 157.117 229.590,158.667 226.074,160.088 222.852 C 169.734 200.976,186.375 174.766,198.442 162.442 C 202.907 157.883,206.044 157.702,209.122 161.824 C 211.423 164.906,210.569 167.539,204.659 175.586 C 189.794 195.826,167.969 235.225,167.969 241.820 C 167.969 243.667,180.932 239.824,190.430 235.161 C 224.325 218.519,238.235 186.338,231.426 140.314 C 229.799 129.312,230.341 129.860,222.852 131.641 " stroke="none" fill="#f4f4ee" fill-rule="evenodd"></path><path id="path2" d="M196.790 77.242 C 197.926 77.321,199.683 77.320,200.697 77.240 C 201.710 77.160,200.781 77.095,198.633 77.096 C 196.484 77.097,195.655 77.162,196.790 77.242 M189.753 77.627 C 190.455 77.714,191.510 77.712,192.097 77.623 C 192.684 77.534,192.109 77.463,190.820 77.465 C 189.531 77.467,189.051 77.540,189.753 77.627 M205.362 77.626 C 206.056 77.712,207.286 77.713,208.097 77.629 C 208.907 77.544,208.340 77.474,206.836 77.472 C 205.332 77.470,204.669 77.539,205.362 77.626 M185.844 78.011 C 186.330 78.104,187.033 78.101,187.407 78.003 C 187.780 77.905,187.383 77.829,186.523 77.833 C 185.664 77.837,185.358 77.917,185.844 78.011 M210.449 78.010 C 210.933 78.103,211.724 78.103,212.207 78.010 C 212.690 77.917,212.295 77.841,211.328 77.841 C 210.361 77.841,209.966 77.917,210.449 78.010 M214.160 78.394 C 214.536 78.493,215.151 78.493,215.527 78.394 C 215.903 78.296,215.596 78.216,214.844 78.216 C 214.092 78.216,213.784 78.296,214.160 78.394 M238.281 83.789 C 240.065 84.476,240.766 84.466,239.258 83.775 C 238.613 83.480,237.822 83.244,237.500 83.250 C 237.178 83.257,237.529 83.499,238.281 83.789 M150.781 88.086 C 149.385 88.817,148.418 89.415,148.633 89.415 C 148.848 89.415,150.166 88.817,151.563 88.086 C 152.959 87.355,153.926 86.757,153.711 86.757 C 153.496 86.757,152.178 87.355,150.781 88.086 M250.423 88.429 C 250.823 88.790,253.906 90.230,253.906 90.055 C 253.906 89.833,250.958 88.281,250.536 88.281 C 250.385 88.281,250.334 88.348,250.423 88.429 M145.996 90.455 C 144.976 90.987,144.141 91.509,144.141 91.616 C 144.141 91.723,145.020 91.365,146.094 90.820 C 147.168 90.276,148.047 89.746,148.047 89.642 C 148.047 89.383,148.082 89.370,145.996 90.455 M193.262 92.470 C 193.960 92.557,195.103 92.557,195.801 92.470 C 196.499 92.383,195.928 92.313,194.531 92.313 C 193.135 92.313,192.563 92.383,193.262 92.470 M205.762 92.470 C 206.460 92.557,207.603 92.557,208.301 92.470 C 208.999 92.383,208.428 92.313,207.031 92.313 C 205.635 92.313,205.063 92.383,205.762 92.470 M188.969 92.854 C 189.455 92.948,190.158 92.944,190.532 92.847 C 190.905 92.749,190.508 92.672,189.648 92.677 C 188.789 92.681,188.483 92.761,188.969 92.854 M210.844 92.854 C 211.330 92.948,212.033 92.944,212.407 92.847 C 212.780 92.749,212.383 92.672,211.523 92.677 C 210.664 92.681,210.358 92.761,210.844 92.854 M186.035 93.238 C 186.411 93.336,187.026 93.336,187.402 93.238 C 187.778 93.140,187.471 93.059,186.719 93.059 C 185.967 93.059,185.659 93.140,186.035 93.238 M259.766 93.477 C 259.766 93.566,260.776 94.288,262.012 95.081 C 263.247 95.874,263.777 96.114,263.190 95.615 C 262.030 94.629,259.766 93.215,259.766 93.477 M133.008 98.667 L 131.836 99.674 133.105 98.834 C 133.804 98.372,134.375 97.918,134.375 97.825 C 134.375 97.533,134.210 97.634,133.008 98.667 M163.477 99.037 C 162.500 99.508,162.467 99.562,163.281 99.363 C 164.388 99.092,165.632 98.458,165.039 98.467 C 164.824 98.470,164.121 98.727,163.477 99.037 M267.383 98.726 C 267.598 98.953,269.180 100.220,270.898 101.543 C 272.617 102.865,273.232 103.234,272.266 102.363 C 270.603 100.865,266.549 97.845,267.383 98.726 M243.001 101.321 C 243.399 101.687,248.828 104.286,248.828 104.111 C 248.828 103.893,243.533 101.172,243.109 101.172 C 242.960 101.172,242.912 101.239,243.001 101.321 M275.391 105.273 C 276.119 106.025,276.804 106.641,276.911 106.641 C 277.018 106.641,276.510 106.025,275.781 105.273 C 275.052 104.521,274.368 103.906,274.261 103.906 C 274.153 103.906,274.662 104.521,275.391 105.273 M124.005 105.957 L 122.461 107.617 124.121 106.073 C 125.665 104.637,125.961 104.297,125.665 104.297 C 125.601 104.297,124.854 105.044,124.005 105.957 M253.320 106.843 C 253.750 107.193,254.453 107.652,254.883 107.863 L 255.664 108.246 254.883 107.610 C 254.453 107.260,253.750 106.801,253.320 106.590 L 252.539 106.207 253.320 106.843 M143.844 109.187 C 142.074 110.372,140.625 111.432,140.625 111.542 C 140.625 111.736,146.303 108.049,147.051 107.369 C 147.947 106.554,146.833 107.185,143.844 109.187 M281.250 110.742 C 283.283 112.783,285.033 114.453,285.141 114.453 C 285.248 114.453,283.673 112.783,281.641 110.742 C 279.608 108.701,277.857 107.031,277.750 107.031 C 277.642 107.031,279.217 108.701,281.250 110.742 M119.141 110.352 C 117.540 111.963,116.318 113.281,116.426 113.281 C 116.533 113.281,117.931 111.963,119.531 110.352 C 121.132 108.740,122.353 107.422,122.246 107.422 C 122.139 107.422,120.741 108.740,119.141 110.352 M257.031 109.126 C 257.031 109.234,257.559 109.697,258.203 110.156 C 258.848 110.615,259.375 110.903,259.375 110.795 C 259.375 110.688,258.848 110.225,258.203 109.766 C 257.559 109.307,257.031 109.019,257.031 109.126 M114.239 115.723 L 112.695 117.383 114.355 115.839 C 115.899 114.403,116.195 114.063,115.900 114.063 C 115.836 114.063,115.089 114.810,114.239 115.723 M134.950 115.850 L 133.008 117.638 135.059 115.984 C 136.898 114.501,137.342 114.063,137.001 114.063 C 136.941 114.063,136.019 114.867,134.950 115.850 M233.301 114.347 C 234.106 114.431,235.425 114.431,236.230 114.347 C 237.036 114.263,236.377 114.194,234.766 114.194 C 233.154 114.194,232.495 114.263,233.301 114.347 M264.844 114.966 C 264.844 115.033,265.415 115.604,266.113 116.236 L 267.383 117.383 266.236 116.113 C 265.166 114.930,264.844 114.664,264.844 114.966 M286.328 116.211 C 287.057 116.963,287.741 117.578,287.849 117.578 C 287.956 117.578,287.448 116.963,286.719 116.211 C 285.990 115.459,285.306 114.844,285.198 114.844 C 285.091 114.844,285.599 115.459,286.328 116.211 M267.578 117.295 C 267.578 117.354,268.940 118.716,270.605 120.322 L 273.633 123.242 270.713 120.215 C 268.001 117.403,267.578 117.009,267.578 117.295 M128.899 121.387 L 125.195 125.195 129.004 121.492 C 132.541 118.053,132.990 117.578,132.707 117.578 C 132.649 117.578,130.935 119.292,128.899 121.387 M211.914 119.141 C 211.422 119.352,211.349 119.476,211.719 119.476 C 212.041 119.476,212.656 119.325,213.086 119.141 C 213.578 118.929,213.651 118.805,213.281 118.805 C 212.959 118.805,212.344 118.956,211.914 119.141 M274.805 125.000 C 275.644 125.859,276.418 126.563,276.526 126.563 C 276.633 126.563,276.034 125.859,275.195 125.000 C 274.356 124.141,273.582 123.438,273.474 123.438 C 273.367 123.438,273.966 124.141,274.805 125.000 M106.250 125.781 C 105.791 126.426,105.503 126.953,105.611 126.953 C 105.718 126.953,106.182 126.426,106.641 125.781 C 107.100 125.137,107.387 124.609,107.280 124.609 C 107.172 124.609,106.709 125.137,106.250 125.781 M192.871 126.782 C 190.991 127.740,189.453 128.612,189.453 128.719 C 189.453 128.894,196.445 125.517,196.842 125.150 C 197.412 124.624,195.821 125.278,192.871 126.782 M124.187 126.465 C 121.884 129.046,121.361 129.688,121.564 129.688 C 121.683 129.688,122.606 128.721,123.616 127.539 C 125.485 125.351,125.933 124.509,124.187 126.465 M295.103 127.637 C 295.705 128.550,296.272 129.297,296.363 129.297 C 296.645 129.297,295.149 126.919,294.562 126.435 C 294.257 126.183,294.500 126.724,295.103 127.637 M279.542 130.762 C 282.679 134.798,284.104 136.398,282.237 133.789 C 280.615 131.522,276.948 126.953,276.750 126.953 C 276.657 126.953,277.914 128.667,279.542 130.762 M102.493 131.348 C 101.148 133.629,101.060 133.824,101.745 133.008 C 102.539 132.063,103.223 130.859,102.966 130.859 C 102.864 130.859,102.651 131.079,102.493 131.348 M297.606 131.445 C 297.817 131.875,298.276 132.578,298.626 133.008 L 299.262 133.789 298.878 133.008 C 298.667 132.578,298.208 131.875,297.859 131.445 L 297.223 130.664 297.606 131.445 M119.141 132.813 C 118.682 133.457,118.394 133.984,118.501 133.984 C 118.609 133.984,119.072 133.457,119.531 132.813 C 119.990 132.168,120.278 131.641,120.170 131.641 C 120.063 131.641,119.600 132.168,119.141 132.813 M214.648 133.594 C 214.156 133.805,214.084 133.929,214.453 133.929 C 214.775 133.929,215.391 133.778,215.820 133.594 C 216.313 133.382,216.385 133.258,216.016 133.258 C 215.693 133.258,215.078 133.409,214.648 133.594 M100.195 135.156 C 99.862 135.801,99.677 136.328,99.785 136.328 C 99.892 136.328,100.253 135.801,100.586 135.156 C 100.919 134.512,101.104 133.984,100.997 133.984 C 100.889 133.984,100.529 134.512,100.195 135.156 M177.633 135.750 C 176.185 136.722,175.000 137.602,175.000 137.707 C 175.000 137.811,176.230 137.079,177.734 136.079 C 180.127 134.488,180.760 133.984,180.367 133.984 C 180.311 133.984,179.080 134.779,177.633 135.750 M98.633 137.891 C 98.300 138.535,98.115 139.063,98.222 139.063 C 98.330 139.063,98.690 138.535,99.023 137.891 C 99.357 137.246,99.542 136.719,99.434 136.719 C 99.327 136.719,98.966 137.246,98.633 137.891 M203.906 137.891 C 203.154 138.302,202.715 138.639,202.930 138.639 C 203.145 138.639,203.936 138.302,204.688 137.891 C 205.439 137.479,205.879 137.142,205.664 137.142 C 205.449 137.142,204.658 137.479,203.906 137.891 M245.403 138.672 C 245.403 139.424,245.484 139.731,245.582 139.355 C 245.680 138.979,245.680 138.364,245.582 137.988 C 245.484 137.612,245.403 137.920,245.403 138.672 M303.012 141.197 C 303.805 142.801,304.518 144.049,304.596 143.972 C 304.770 143.798,302.017 138.281,301.756 138.281 C 301.653 138.281,302.218 139.593,303.012 141.197 M245.802 141.602 C 245.806 142.461,245.886 142.767,245.979 142.281 C 246.073 141.795,246.069 141.092,245.972 140.718 C 245.874 140.345,245.797 140.742,245.802 141.602 M286.914 141.406 C 287.247 142.051,287.608 142.578,287.715 142.578 C 287.823 142.578,287.638 142.051,287.305 141.406 C 286.971 140.762,286.611 140.234,286.503 140.234 C 286.396 140.234,286.581 140.762,286.914 141.406 M196.387 141.627 C 195.366 142.158,194.531 142.681,194.531 142.788 C 194.531 142.894,195.410 142.537,196.484 141.992 C 197.559 141.448,198.438 140.918,198.438 140.814 C 198.438 140.555,198.473 140.541,196.387 141.627 M231.731 142.188 C 231.731 142.939,231.812 143.247,231.910 142.871 C 232.008 142.495,232.008 141.880,231.910 141.504 C 231.812 141.128,231.731 141.436,231.731 142.188 M167.948 143.262 L 166.602 144.727 168.066 143.380 C 168.872 142.640,169.531 141.981,169.531 141.916 C 169.531 141.617,169.201 141.898,167.948 143.262 M246.192 145.117 C 246.197 145.977,246.277 146.282,246.370 145.796 C 246.463 145.310,246.460 144.607,246.362 144.234 C 246.264 143.860,246.188 144.258,246.192 145.117 M94.985 145.134 C 94.331 146.570,94.456 146.877,95.163 145.571 C 95.494 144.961,95.691 144.389,95.602 144.300 C 95.512 144.210,95.235 144.586,94.985 145.134 M232.138 145.703 C 232.138 146.670,232.214 147.065,232.307 146.582 C 232.400 146.099,232.400 145.308,232.307 144.824 C 232.214 144.341,232.138 144.736,232.138 145.703 M110.331 147.306 C 109.563 148.832,108.998 150.144,109.076 150.222 C 109.154 150.299,109.867 149.051,110.660 147.447 C 111.454 145.843,112.019 144.531,111.916 144.531 C 111.813 144.531,111.100 145.780,110.331 147.306 M162.687 148.145 L 159.180 151.758 162.793 148.250 C 164.780 146.321,166.406 144.695,166.406 144.637 C 166.406 144.353,165.945 144.789,162.687 148.145 M289.729 146.669 C 290.305 147.844,290.843 148.741,290.923 148.661 C 291.098 148.485,289.128 144.531,288.865 144.531 C 288.763 144.531,289.152 145.493,289.729 146.669 M246.605 149.414 C 246.608 150.703,246.681 151.183,246.767 150.481 C 246.854 149.779,246.853 148.725,246.763 148.138 C 246.674 147.551,246.603 148.125,246.605 149.414 M184.961 148.667 L 183.789 149.674 185.059 148.834 C 185.757 148.372,186.328 147.918,186.328 147.825 C 186.328 147.533,186.163 147.634,184.961 148.667 M232.547 150.781 C 232.547 152.178,232.618 152.749,232.704 152.051 C 232.791 151.353,232.791 150.210,232.704 149.512 C 232.618 148.813,232.547 149.385,232.547 150.781 M157.983 153.223 L 156.836 154.492 158.105 153.345 C 159.289 152.275,159.555 151.953,159.253 151.953 C 159.186 151.953,158.614 152.524,157.983 153.223 M247.044 162.109 C 247.044 167.373,247.099 169.526,247.167 166.895 C 247.234 164.263,247.234 159.956,247.167 157.324 C 247.099 154.692,247.044 156.846,247.044 162.109 M177.124 154.785 L 175.977 156.055 177.246 154.907 C 178.429 153.838,178.695 153.516,178.393 153.516 C 178.326 153.516,177.755 154.087,177.124 154.785 M90.474 156.494 C 90.127 157.510,89.857 158.531,89.872 158.761 C 89.888 158.991,90.239 158.227,90.652 157.063 C 91.066 155.898,91.336 154.878,91.254 154.795 C 91.171 154.713,90.820 155.477,90.474 156.494 M232.972 160.938 C 232.972 164.482,233.031 165.933,233.103 164.160 C 233.176 162.388,233.176 159.487,233.103 157.715 C 233.031 155.942,232.972 157.393,232.972 160.938 M172.062 159.473 L 168.555 163.086 172.168 159.578 C 175.524 156.321,175.959 155.859,175.675 155.859 C 175.617 155.859,173.991 157.485,172.062 159.473 M201.735 159.592 C 200.989 160.190,200.989 160.194,201.758 159.840 C 202.188 159.642,202.803 159.383,203.125 159.263 C 203.631 159.076,203.628 159.042,203.102 159.015 C 202.767 158.998,202.152 159.258,201.735 159.592 M207.175 160.201 C 207.791 160.679,208.625 161.611,209.029 162.273 C 209.432 162.935,209.763 163.270,209.764 163.018 C 209.766 162.365,207.883 160.213,206.891 159.735 C 206.369 159.483,206.475 159.658,207.175 160.201 M151.257 161.816 C 149.831 163.922,149.523 164.453,149.726 164.453 C 149.816 164.453,150.531 163.486,151.316 162.305 C 152.100 161.123,152.661 160.156,152.562 160.156 C 152.463 160.156,151.875 160.903,151.257 161.816 M198.424 162.402 L 196.289 164.648 198.535 162.513 C 199.771 161.339,200.781 160.328,200.781 160.267 C 200.781 159.977,200.408 160.316,198.424 162.402 M209.883 165.625 C 209.883 166.807,209.956 167.290,210.045 166.699 C 210.135 166.108,210.135 165.142,210.045 164.551 C 209.956 163.960,209.883 164.443,209.883 165.625 M147.461 167.969 C 147.128 168.613,146.943 169.141,147.050 169.141 C 147.158 169.141,147.518 168.613,147.852 167.969 C 148.185 167.324,148.370 166.797,148.262 166.797 C 148.155 166.797,147.794 167.324,147.461 167.969 M163.754 169.434 C 161.916 172.169,161.626 172.656,161.834 172.656 C 161.922 172.656,162.813 171.426,163.813 169.922 C 164.813 168.418,165.548 167.188,165.447 167.188 C 165.346 167.188,164.584 168.198,163.754 169.434 M192.578 169.141 C 191.679 170.215,191.031 171.094,191.138 171.094 C 191.246 171.094,192.069 170.215,192.969 169.141 C 193.868 168.066,194.516 167.188,194.409 167.188 C 194.301 167.188,193.478 168.066,192.578 169.141 M232.543 170.898 C 232.545 172.188,232.618 172.668,232.705 171.966 C 232.792 171.264,232.790 170.209,232.701 169.622 C 232.612 169.035,232.541 169.609,232.543 170.898 M207.031 171.875 C 206.572 172.520,206.285 173.047,206.392 173.047 C 206.500 173.047,206.963 172.520,207.422 171.875 C 207.881 171.230,208.168 170.703,208.061 170.703 C 207.954 170.703,207.490 171.230,207.031 171.875 M246.601 174.609 C 246.601 175.791,246.675 176.274,246.764 175.684 C 246.854 175.093,246.854 174.126,246.764 173.535 C 246.675 172.944,246.601 173.428,246.601 174.609 M188.242 174.707 C 186.272 177.267,186.220 177.344,186.429 177.344 C 186.537 177.344,187.355 176.377,188.247 175.195 C 189.139 174.014,189.790 173.047,189.694 173.047 C 189.598 173.047,188.944 173.794,188.242 174.707 M144.204 174.431 C 143.550 175.867,143.674 176.174,144.382 174.868 C 144.713 174.258,144.910 173.686,144.821 173.597 C 144.731 173.507,144.454 173.883,144.204 174.431 M232.138 175.391 C 232.138 176.357,232.214 176.753,232.307 176.270 C 232.400 175.786,232.400 174.995,232.307 174.512 C 232.214 174.028,232.138 174.424,232.138 175.391 M158.769 177.773 C 158.214 178.869,157.825 179.831,157.906 179.911 C 157.986 179.991,158.523 179.094,159.099 177.919 C 159.676 176.743,160.065 175.781,159.963 175.781 C 159.862 175.781,159.325 176.678,158.769 177.773 M86.036 177.539 C 86.040 178.398,86.120 178.704,86.214 178.218 C 86.307 177.732,86.304 177.029,86.206 176.656 C 86.108 176.282,86.032 176.680,86.036 177.539 M314.153 177.344 C 314.153 178.096,314.234 178.403,314.332 178.027 C 314.430 177.651,314.430 177.036,314.332 176.660 C 314.234 176.284,314.153 176.592,314.153 177.344 M202.734 177.734 C 202.275 178.379,201.988 178.906,202.095 178.906 C 202.203 178.906,202.666 178.379,203.125 177.734 C 203.584 177.090,203.872 176.563,203.764 176.563 C 203.657 176.563,203.193 177.090,202.734 177.734 M246.192 178.320 C 246.197 179.180,246.277 179.485,246.370 178.999 C 246.463 178.513,246.460 177.810,246.362 177.437 C 246.264 177.063,246.188 177.461,246.192 178.320 M231.731 178.516 C 231.731 179.268,231.812 179.575,231.910 179.199 C 232.008 178.823,232.008 178.208,231.910 177.832 C 231.812 177.456,231.731 177.764,231.731 178.516 M100.872 178.906 C 100.872 179.658,100.952 179.966,101.051 179.590 C 101.149 179.214,101.149 178.599,101.051 178.223 C 100.952 177.847,100.872 178.154,100.872 178.906 M185.156 178.906 C 184.697 179.551,184.410 180.078,184.517 180.078 C 184.625 180.078,185.088 179.551,185.547 178.906 C 186.006 178.262,186.293 177.734,186.186 177.734 C 186.079 177.734,185.615 178.262,185.156 178.906 M299.700 179.688 C 299.700 180.439,299.780 180.747,299.879 180.371 C 299.977 179.995,299.977 179.380,299.879 179.004 C 299.780 178.628,299.700 178.936,299.700 179.688 M314.565 181.055 C 314.568 182.129,314.644 182.522,314.733 181.928 C 314.823 181.334,314.821 180.456,314.728 179.975 C 314.635 179.495,314.562 179.980,314.565 181.055 M85.668 181.836 C 85.670 183.125,85.743 183.605,85.830 182.903 C 85.917 182.201,85.915 181.146,85.826 180.559 C 85.737 179.972,85.666 180.547,85.668 181.836 M100.497 182.031 C 100.497 182.998,100.573 183.394,100.666 182.910 C 100.759 182.427,100.759 181.636,100.666 181.152 C 100.573 180.669,100.497 181.064,100.497 182.031 M183.203 181.641 C 182.744 182.285,182.457 182.813,182.564 182.813 C 182.671 182.813,183.135 182.285,183.594 181.641 C 184.053 180.996,184.340 180.469,184.233 180.469 C 184.125 180.469,183.662 180.996,183.203 181.641 M300.112 183.008 C 300.115 184.082,300.191 184.475,300.280 183.881 C 300.370 183.288,300.368 182.409,300.275 181.928 C 300.182 181.448,300.109 181.934,300.112 183.008 M197.656 184.961 C 196.991 185.928,196.535 186.719,196.642 186.719 C 196.750 186.719,197.382 185.928,198.047 184.961 C 198.712 183.994,199.168 183.203,199.061 183.203 C 198.954 183.203,198.321 183.994,197.656 184.961 M314.969 185.938 C 314.969 187.334,315.040 187.905,315.126 187.207 C 315.213 186.509,315.213 185.366,315.126 184.668 C 315.040 183.970,314.969 184.541,314.969 185.938 M100.125 186.328 C 100.125 187.725,100.196 188.296,100.283 187.598 C 100.369 186.899,100.369 185.757,100.283 185.059 C 100.196 184.360,100.125 184.932,100.125 186.328 M85.318 192.188 C 85.318 196.162,85.376 197.788,85.447 195.801 C 85.518 193.813,85.518 190.562,85.447 188.574 C 85.376 186.587,85.318 188.213,85.318 192.188 M300.550 192.188 C 300.550 195.732,300.609 197.183,300.681 195.410 C 300.754 193.638,300.754 190.737,300.681 188.965 C 300.609 187.192,300.550 188.643,300.550 192.188 M178.665 188.379 C 177.320 190.660,177.232 190.855,177.917 190.039 C 178.711 189.094,179.394 187.891,179.138 187.891 C 179.036 187.891,178.823 188.110,178.665 188.379 M194.771 189.258 C 194.425 189.795,193.856 190.718,193.508 191.309 L 192.876 192.383 193.662 191.432 C 194.590 190.309,195.821 188.281,195.575 188.281 C 195.480 188.281,195.118 188.721,194.771 189.258 M154.129 189.676 C 153.986 190.249,153.944 190.793,154.036 190.885 C 154.128 190.977,154.321 190.584,154.464 190.011 C 154.608 189.439,154.650 188.895,154.558 188.803 C 154.466 188.711,154.273 189.104,154.129 189.676 M315.366 192.969 C 315.366 194.580,315.435 195.239,315.519 194.434 C 315.603 193.628,315.603 192.310,315.519 191.504 C 315.435 190.698,315.366 191.357,315.366 192.969 M99.716 192.578 C 99.716 193.545,99.792 193.940,99.885 193.457 C 99.978 192.974,99.978 192.183,99.885 191.699 C 99.792 191.216,99.716 191.611,99.716 192.578 M176.711 191.504 C 175.367 193.785,175.279 193.980,175.964 193.164 C 176.757 192.219,177.441 191.016,177.185 191.016 C 177.083 191.016,176.870 191.235,176.711 191.504 M137.989 195.898 C 137.993 196.758,138.073 197.063,138.167 196.577 C 138.260 196.092,138.257 195.388,138.159 195.015 C 138.061 194.642,137.985 195.039,137.989 195.898 M100.121 199.414 C 100.123 200.703,100.196 201.183,100.283 200.481 C 100.370 199.779,100.368 198.725,100.279 198.138 C 100.190 197.551,100.119 198.125,100.121 199.414 M242.020 198.270 C 241.876 198.843,241.834 199.386,241.926 199.478 C 242.018 199.570,242.211 199.177,242.355 198.605 C 242.499 198.032,242.541 197.489,242.449 197.397 C 242.357 197.305,242.164 197.698,242.020 198.270 M137.621 200.195 C 137.623 201.484,137.696 201.965,137.783 201.263 C 137.870 200.560,137.868 199.506,137.779 198.919 C 137.690 198.332,137.619 198.906,137.621 200.195 M314.965 200.195 C 314.967 201.484,315.040 201.965,315.127 201.263 C 315.214 200.560,315.212 199.506,315.123 198.919 C 315.034 198.332,314.963 198.906,314.965 200.195 M152.060 201.563 C 152.060 202.529,152.136 202.925,152.229 202.441 C 152.322 201.958,152.322 201.167,152.229 200.684 C 152.136 200.200,152.060 200.596,152.060 201.563 M225.265 201.385 C 224.348 203.310,224.477 203.637,225.436 201.819 C 225.872 200.993,226.159 200.248,226.075 200.163 C 225.990 200.079,225.626 200.629,225.265 201.385 M300.112 201.758 C 300.115 202.832,300.191 203.225,300.280 202.631 C 300.370 202.038,300.368 201.159,300.275 200.678 C 300.182 200.198,300.109 200.684,300.112 201.758 M85.664 202.344 C 85.664 203.525,85.737 204.009,85.827 203.418 C 85.916 202.827,85.916 201.860,85.827 201.270 C 85.737 200.679,85.664 201.162,85.664 202.344 M170.508 201.953 C 170.175 202.598,169.990 203.125,170.097 203.125 C 170.205 203.125,170.565 202.598,170.898 201.953 C 171.232 201.309,171.417 200.781,171.309 200.781 C 171.202 200.781,170.841 201.309,170.508 201.953 M240.668 202.387 C 240.428 203.077,240.299 203.711,240.383 203.794 C 240.466 203.878,240.732 203.381,240.972 202.691 C 241.213 202.001,241.341 201.367,241.258 201.284 C 241.174 201.200,240.909 201.697,240.668 202.387 M100.481 203.516 C 100.481 204.268,100.562 204.575,100.660 204.199 C 100.758 203.823,100.758 203.208,100.660 202.832 C 100.562 202.456,100.481 202.764,100.481 203.516 M223.438 205.078 C 222.999 205.938,222.728 206.641,222.836 206.641 C 222.943 206.641,223.390 205.938,223.828 205.078 C 224.267 204.219,224.537 203.516,224.430 203.516 C 224.323 203.516,223.876 204.219,223.438 205.078 M314.544 204.688 C 314.544 205.439,314.624 205.747,314.722 205.371 C 314.821 204.995,314.821 204.380,314.722 204.004 C 314.624 203.628,314.544 203.936,314.544 204.688 M151.713 208.984 C 151.713 211.670,151.775 212.769,151.852 211.426 C 151.928 210.083,151.928 207.886,151.852 206.543 C 151.775 205.200,151.713 206.299,151.713 208.984 M168.555 205.469 C 168.221 206.113,168.037 206.641,168.144 206.641 C 168.251 206.641,168.612 206.113,168.945 205.469 C 169.279 204.824,169.463 204.297,169.356 204.297 C 169.249 204.297,168.888 204.824,168.555 205.469 M299.700 205.469 C 299.700 206.221,299.780 206.528,299.879 206.152 C 299.977 205.776,299.977 205.161,299.879 204.785 C 299.780 204.409,299.700 204.717,299.700 205.469 M137.241 207.422 C 137.241 209.033,137.310 209.692,137.394 208.887 C 137.478 208.081,137.478 206.763,137.394 205.957 C 137.310 205.151,137.241 205.811,137.241 207.422 M86.028 206.250 C 86.028 207.002,86.109 207.310,86.207 206.934 C 86.305 206.558,86.305 205.942,86.207 205.566 C 86.109 205.190,86.028 205.498,86.028 206.250 M238.345 208.025 C 237.690 209.461,237.815 209.767,238.523 208.462 C 238.853 207.852,239.051 207.280,238.961 207.190 C 238.872 207.101,238.594 207.476,238.345 208.025 M182.031 210.547 C 181.593 211.406,181.322 212.109,181.429 212.109 C 181.537 212.109,181.983 211.406,182.422 210.547 C 182.860 209.687,183.131 208.984,183.024 208.984 C 182.916 208.984,182.470 209.687,182.031 210.547 M165.019 212.149 C 164.250 213.675,163.685 214.988,163.763 215.065 C 163.841 215.143,164.554 213.895,165.348 212.291 C 166.141 210.687,166.706 209.375,166.603 209.375 C 166.500 209.375,165.787 210.623,165.019 212.149 M219.531 211.328 C 219.072 211.973,218.785 212.500,218.892 212.500 C 219.000 212.500,219.463 211.973,219.922 211.328 C 220.381 210.684,220.668 210.156,220.561 210.156 C 220.454 210.156,219.990 210.684,219.531 211.328 M236.328 212.109 C 235.890 212.969,235.619 213.672,235.726 213.672 C 235.834 213.672,236.280 212.969,236.719 212.109 C 237.157 211.250,237.428 210.547,237.321 210.547 C 237.213 210.547,236.767 211.250,236.328 212.109 M137.617 213.672 C 137.617 214.854,137.690 215.337,137.780 214.746 C 137.869 214.155,137.869 213.188,137.780 212.598 C 137.690 212.007,137.617 212.490,137.617 213.672 M216.598 215.137 C 215.548 216.372,215.094 217.031,215.590 216.602 C 216.532 215.786,218.929 212.891,218.662 212.891 C 218.578 212.891,217.649 213.901,216.598 215.137 M178.906 216.406 C 178.256 217.695,177.811 218.750,177.918 218.750 C 178.026 218.750,178.646 217.695,179.297 216.406 C 179.948 215.117,180.392 214.063,180.285 214.063 C 180.177 214.063,179.557 215.117,178.906 216.406 M152.065 216.992 C 152.068 218.066,152.144 218.459,152.233 217.866 C 152.323 217.272,152.321 216.393,152.228 215.913 C 152.135 215.432,152.062 215.918,152.065 216.992 M137.997 217.969 C 137.997 218.936,138.073 219.331,138.166 218.848 C 138.259 218.364,138.259 217.573,138.166 217.090 C 138.073 216.606,137.997 217.002,137.997 217.969 M211.719 220.508 C 210.118 222.119,208.897 223.438,209.004 223.438 C 209.111 223.438,210.509 222.119,212.109 220.508 C 213.710 218.896,214.932 217.578,214.824 217.578 C 214.717 217.578,213.319 218.896,211.719 220.508 M161.593 219.354 C 160.676 221.278,160.805 221.606,161.764 219.787 C 162.200 218.961,162.487 218.217,162.403 218.132 C 162.318 218.048,161.954 218.598,161.593 219.354 M230.794 220.801 C 230.299 221.499,228.958 223.213,227.814 224.609 L 225.735 227.148 227.647 225.095 C 229.587 223.011,232.239 219.531,231.887 219.531 C 231.781 219.531,231.289 220.103,230.794 220.801 M138.372 221.094 C 138.372 221.846,138.452 222.153,138.551 221.777 C 138.649 221.401,138.649 220.786,138.551 220.410 C 138.452 220.034,138.372 220.342,138.372 221.094 M174.683 224.824 C 173.506 227.246,173.637 227.585,174.850 225.255 C 175.392 224.213,175.768 223.294,175.687 223.213 C 175.605 223.131,175.153 223.856,174.683 224.824 M207.202 224.707 L 206.055 225.977 207.324 224.829 C 208.508 223.760,208.773 223.438,208.472 223.438 C 208.404 223.438,207.833 224.009,207.202 224.707 M310.379 224.833 C 310.236 225.405,310.194 225.949,310.286 226.041 C 310.378 226.133,310.571 225.740,310.714 225.167 C 310.858 224.595,310.900 224.051,310.808 223.959 C 310.716 223.867,310.523 224.260,310.379 224.833 M153.571 226.172 C 153.571 226.494,153.722 227.109,153.906 227.539 C 154.118 228.031,154.242 228.104,154.242 227.734 C 154.242 227.412,154.091 226.797,153.906 226.367 C 153.695 225.875,153.571 225.803,153.571 226.172 M202.441 228.164 C 201.528 228.811,200.781 229.426,200.781 229.532 C 200.781 229.638,201.572 229.181,202.539 228.516 C 203.506 227.850,204.297 227.227,204.297 227.130 C 204.297 226.861,204.223 226.902,202.441 228.164 M223.230 229.785 L 220.898 232.227 223.340 229.895 C 224.683 228.613,225.781 227.514,225.781 227.454 C 225.781 227.165,225.396 227.517,223.230 229.785 M172.329 229.900 C 171.675 231.336,171.799 231.642,172.507 230.337 C 172.838 229.727,173.035 229.155,172.946 229.065 C 172.856 228.976,172.579 229.351,172.329 229.900 M107.840 231.055 C 107.840 231.270,108.091 231.885,108.398 232.422 C 108.705 232.959,108.957 233.223,108.957 233.008 C 108.957 232.793,108.705 232.178,108.398 231.641 C 108.091 231.104,107.840 230.840,107.840 231.055 M307.856 232.465 C 307.615 233.156,307.487 233.789,307.570 233.872 C 307.654 233.956,307.919 233.459,308.160 232.769 C 308.400 232.079,308.529 231.446,308.445 231.362 C 308.362 231.278,308.097 231.775,307.856 232.465 M219.311 233.301 L 218.164 234.570 219.434 233.423 C 220.132 232.792,220.703 232.221,220.703 232.153 C 220.703 231.852,220.381 232.117,219.311 233.301 M291.860 233.025 C 291.206 234.461,291.331 234.767,292.038 233.462 C 292.369 232.852,292.566 232.280,292.477 232.190 C 292.387 232.101,292.110 232.476,291.860 233.025 M190.625 235.156 C 189.014 235.994,187.832 236.689,187.998 236.699 C 188.413 236.726,193.750 234.021,193.750 233.784 C 193.750 233.520,193.879 233.464,190.625 235.156 M141.435 234.598 C 141.395 235.188,142.634 238.746,142.816 238.564 C 142.899 238.481,142.628 237.461,142.215 236.297 C 141.801 235.132,141.450 234.368,141.435 234.598 M110.547 236.868 C 110.547 237.288,111.709 239.453,111.934 239.453 C 112.042 239.453,111.839 238.882,111.484 238.184 C 110.759 236.758,110.547 236.460,110.547 236.868 M185.156 237.695 C 184.619 238.002,184.355 238.254,184.570 238.254 C 184.785 238.254,185.400 238.002,185.938 237.695 C 186.475 237.388,186.738 237.137,186.523 237.137 C 186.309 237.137,185.693 237.388,185.156 237.695 M94.559 237.695 C 94.559 237.910,94.810 238.525,95.117 239.063 C 95.424 239.600,95.675 239.863,95.675 239.648 C 95.675 239.434,95.424 238.818,95.117 238.281 C 94.810 237.744,94.559 237.480,94.559 237.695 M210.437 240.008 C 208.131 241.604,207.582 242.163,209.283 241.184 C 210.595 240.429,212.848 238.694,212.500 238.707 C 212.393 238.712,211.464 239.297,210.437 240.008 M288.086 240.625 C 287.753 241.270,287.568 241.797,287.675 241.797 C 287.783 241.797,288.143 241.270,288.477 240.625 C 288.810 239.980,288.995 239.453,288.887 239.453 C 288.780 239.453,288.419 239.980,288.086 240.625 M167.677 241.797 C 167.764 242.119,168.260 242.415,168.781 242.455 C 169.526 242.512,169.561 242.482,168.945 242.312 C 168.516 242.194,168.019 241.898,167.841 241.654 C 167.628 241.361,167.572 241.410,167.677 241.797 M200.684 245.927 C 199.223 246.719,199.312 247.049,200.781 246.289 C 201.426 245.956,201.953 245.600,201.953 245.498 C 201.953 245.246,201.911 245.261,200.684 245.927 M241.313 246.761 C 241.799 246.854,242.502 246.851,242.876 246.753 C 243.249 246.655,242.852 246.579,241.992 246.583 C 241.133 246.587,240.827 246.667,241.313 246.761 M244.727 247.519 C 245.371 247.856,247.129 249.299,248.633 250.726 L 251.367 253.320 248.828 250.654 C 246.523 248.234,244.697 246.849,243.867 246.891 C 243.695 246.899,244.082 247.182,244.727 247.519 M236.889 248.926 L 235.742 250.195 237.012 249.048 C 238.195 247.979,238.461 247.656,238.159 247.656 C 238.092 247.656,237.521 248.228,236.889 248.926 M193.359 249.609 C 192.607 250.021,192.168 250.358,192.383 250.358 C 192.598 250.358,193.389 250.021,194.141 249.609 C 194.893 249.198,195.332 248.861,195.117 248.861 C 194.902 248.861,194.111 249.198,193.359 249.609 M280.126 252.832 C 278.797 254.604,278.287 255.416,278.992 254.636 C 280.390 253.088,282.958 249.609,282.702 249.609 C 282.614 249.609,281.455 251.060,280.126 252.832 M119.132 251.160 C 119.587 251.798,120.158 252.443,120.402 252.594 C 120.645 252.745,120.353 252.223,119.751 251.434 C 118.445 249.722,117.953 249.504,119.132 251.160 M148.709 251.753 C 149.066 252.502,149.428 253.046,149.513 252.961 C 149.692 252.782,148.506 250.391,148.238 250.391 C 148.140 250.391,148.352 251.004,148.709 251.753 M101.512 251.367 C 101.723 251.797,102.182 252.500,102.532 252.930 L 103.168 253.711 102.785 252.930 C 102.574 252.500,102.115 251.797,101.765 251.367 L 101.129 250.586 101.512 251.367 M234.864 253.711 C 234.868 254.570,234.948 254.876,235.042 254.390 C 235.135 253.904,235.132 253.201,235.034 252.827 C 234.936 252.454,234.860 252.852,234.864 253.711 M121.871 254.682 C 122.549 255.538,123.308 256.365,123.557 256.519 C 123.807 256.673,123.333 255.973,122.505 254.962 C 121.677 253.952,120.918 253.125,120.819 253.125 C 120.719 253.125,121.192 253.826,121.871 254.682 M257.813 260.352 C 261.568 264.111,264.728 267.188,264.835 267.188 C 264.943 267.188,261.958 264.111,258.203 260.352 C 254.448 256.592,251.288 253.516,251.180 253.516 C 251.073 253.516,254.057 256.592,257.813 260.352 M294.922 257.422 C 294.463 258.066,294.175 258.594,294.283 258.594 C 294.390 258.594,294.854 258.066,295.313 257.422 C 295.771 256.777,296.059 256.250,295.952 256.250 C 295.844 256.250,295.381 256.777,294.922 257.422 M123.828 257.153 C 123.828 257.221,124.399 257.792,125.098 258.423 L 126.367 259.570 125.220 258.301 C 124.150 257.117,123.828 256.852,123.828 257.153 M167.485 257.308 C 167.971 257.401,168.674 257.397,169.048 257.300 C 169.421 257.202,169.023 257.125,168.164 257.130 C 167.305 257.134,166.999 257.214,167.485 257.308 M162.891 257.725 C 162.891 257.892,163.594 257.961,164.453 257.879 C 165.313 257.797,166.016 257.661,166.016 257.576 C 166.016 257.491,165.313 257.422,164.453 257.422 C 163.594 257.422,162.891 257.558,162.891 257.725 M270.663 263.468 C 267.955 266.140,266.021 268.169,266.366 267.978 C 267.042 267.602,276.088 258.588,275.775 258.602 C 275.671 258.606,273.370 260.796,270.663 263.468 M292.749 260.418 C 292.147 261.207,291.855 261.729,292.098 261.578 C 292.599 261.269,294.290 258.984,294.018 258.984 C 293.922 258.984,293.351 259.630,292.749 260.418 M129.688 263.477 C 131.720 265.518,133.471 267.188,133.578 267.188 C 133.686 267.188,132.111 265.518,130.078 263.477 C 128.046 261.436,126.295 259.766,126.187 259.766 C 126.080 259.766,127.655 261.436,129.688 263.477 M239.827 262.207 C 240.785 263.228,241.620 264.063,241.683 264.063 C 241.976 264.063,241.666 263.712,239.941 262.093 L 238.086 260.352 239.827 262.207 M109.761 263.276 C 110.440 264.132,111.199 264.959,111.448 265.113 C 111.697 265.267,111.224 264.567,110.396 263.556 C 109.568 262.546,108.809 261.719,108.709 261.719 C 108.610 261.719,109.083 262.419,109.761 263.276 M289.818 264.160 C 288.877 265.288,288.417 265.964,288.795 265.663 C 289.555 265.057,291.961 262.109,291.696 262.109 C 291.604 262.109,290.759 263.032,289.818 264.160 M245.659 268.652 C 247.891 271.069,249.800 273.047,249.901 273.047 C 250.146 273.047,243.176 265.493,242.290 264.798 C 241.911 264.501,243.427 266.235,245.659 268.652 M286.889 267.676 L 285.742 268.945 287.012 267.798 C 287.710 267.167,288.281 266.596,288.281 266.528 C 288.281 266.227,287.959 266.492,286.889 267.676 M135.156 268.555 C 135.885 269.307,136.569 269.922,136.677 269.922 C 136.784 269.922,136.276 269.307,135.547 268.555 C 134.818 267.803,134.134 267.188,134.026 267.188 C 133.919 267.188,134.427 267.803,135.156 268.555 M118.359 272.852 C 121.038 275.537,123.318 277.734,123.426 277.734 C 123.533 277.734,121.429 275.537,118.750 272.852 C 116.071 270.166,113.791 267.969,113.684 267.969 C 113.576 267.969,115.680 270.166,118.359 272.852 M280.951 273.931 C 278.323 276.566,276.172 278.897,276.172 279.110 C 276.172 279.323,281.050 284.330,287.012 290.237 L 297.852 300.977 287.207 290.232 C 281.353 284.322,276.563 279.315,276.563 279.105 C 276.563 278.894,278.713 276.566,281.342 273.931 C 283.970 271.296,286.033 269.141,285.926 269.141 C 285.818 269.141,283.580 271.296,280.951 273.931 M137.231 270.193 C 137.559 270.724,140.625 273.198,140.625 272.931 C 140.625 272.832,139.798 272.073,138.788 271.245 C 137.777 270.417,137.077 269.943,137.231 270.193 M251.508 275.120 C 252.965 276.755,253.116 277.084,252.666 277.659 C 252.202 278.252,252.219 278.265,252.824 277.791 C 253.659 277.137,253.349 276.484,251.315 274.609 C 249.886 273.292,249.893 273.311,251.508 275.120 M143.555 275.161 C 144.920 276.334,145.706 276.454,145.697 275.488 C 145.692 274.943,145.622 274.914,145.347 275.348 C 145.063 275.796,144.772 275.739,143.693 275.023 L 142.383 274.154 143.555 275.161 M123.828 277.857 C 123.828 277.924,124.399 278.495,125.098 279.126 L 126.367 280.273 125.220 279.004 C 124.150 277.821,123.828 277.555,123.828 277.857 M250.684 278.739 C 249.223 279.531,249.312 279.861,250.781 279.102 C 251.426 278.768,251.953 278.412,251.953 278.310 C 251.953 278.059,251.911 278.073,250.684 278.739 M158.727 282.978 C 158.762 283.622,159.044 284.188,159.375 284.277 C 159.767 284.382,159.812 284.327,159.512 284.112 C 159.265 283.934,158.974 283.350,158.864 282.813 C 158.693 281.971,158.674 281.994,158.727 282.978 M241.406 283.398 C 240.869 283.705,240.605 283.957,240.820 283.957 C 241.035 283.957,241.650 283.705,242.188 283.398 C 242.725 283.091,242.988 282.840,242.773 282.840 C 242.559 282.840,241.943 283.091,241.406 283.398 M133.984 286.080 C 133.984 286.187,134.512 286.650,135.156 287.109 C 135.801 287.568,136.328 287.856,136.328 287.749 C 136.328 287.641,135.801 287.178,135.156 286.719 C 134.512 286.260,133.984 285.972,133.984 286.080 M231.055 287.533 C 229.980 287.948,229.609 288.188,230.230 288.068 C 231.459 287.829,234.033 286.783,233.398 286.781 C 233.184 286.780,232.129 287.119,231.055 287.533 M170.898 288.672 C 171.328 288.857,171.943 289.008,172.266 289.008 C 172.635 289.008,172.563 288.883,172.070 288.672 C 171.641 288.487,171.025 288.336,170.703 288.336 C 170.334 288.336,170.406 288.460,170.898 288.672 M262.793 288.895 C 261.344 289.681,261.416 290.021,262.871 289.268 C 264.659 288.344,264.740 288.391,269.721 293.262 L 274.414 297.852 269.733 293.066 C 264.882 288.108,264.579 287.926,262.793 288.895 M173.633 289.453 C 174.063 289.638,174.678 289.789,175.000 289.789 C 175.369 289.789,175.297 289.665,174.805 289.453 C 174.375 289.268,173.760 289.117,173.438 289.117 C 173.068 289.117,173.140 289.242,173.633 289.453 M253.906 293.555 C 250.361 295.358,247.595 296.843,247.759 296.854 C 248.173 296.883,260.547 290.665,260.547 290.427 C 260.547 290.159,261.005 289.943,253.906 293.555 M186.035 292.066 C 186.411 292.164,187.026 292.164,187.402 292.066 C 187.778 291.968,187.471 291.888,186.719 291.888 C 185.967 291.888,185.659 291.968,186.035 292.066 M211.035 292.066 C 211.411 292.164,212.026 292.164,212.402 292.066 C 212.778 291.968,212.471 291.888,211.719 291.888 C 210.967 291.888,210.659 291.968,211.035 292.066 M189.556 292.468 C 190.150 292.558,191.029 292.555,191.509 292.462 C 191.990 292.370,191.504 292.296,190.430 292.299 C 189.355 292.302,188.962 292.378,189.556 292.468 M206.738 292.467 C 207.329 292.557,208.296 292.557,208.887 292.467 C 209.478 292.378,208.994 292.305,207.813 292.305 C 206.631 292.305,206.147 292.378,206.738 292.467 M196.387 292.868 C 197.944 292.942,200.493 292.942,202.051 292.868 C 203.608 292.794,202.334 292.733,199.219 292.733 C 196.104 292.733,194.829 292.794,196.387 292.868 M146.484 293.944 C 146.484 294.205,152.001 296.958,152.175 296.784 C 152.253 296.706,151.004 295.993,149.400 295.199 C 147.797 294.406,146.484 293.841,146.484 293.944 M279.297 302.539 C 281.976 305.225,284.256 307.422,284.363 307.422 C 284.471 307.422,282.367 305.225,279.688 302.539 C 277.008 299.854,274.729 297.656,274.621 297.656 C 274.514 297.656,276.618 299.854,279.297 302.539 M302.348 305.273 C 304.813 307.852,306.899 310.049,306.983 310.156 C 307.068 310.264,306.949 310.000,306.720 309.570 C 306.490 309.141,304.404 306.943,302.084 304.688 L 297.866 300.586 302.348 305.273 M165.039 301.953 C 165.469 302.138,166.084 302.289,166.406 302.289 C 166.776 302.289,166.703 302.165,166.211 301.953 C 165.781 301.768,165.166 301.617,164.844 301.617 C 164.474 301.617,164.547 301.742,165.039 301.953 M168.945 303.125 C 169.375 303.310,169.990 303.461,170.313 303.461 C 170.682 303.461,170.610 303.337,170.117 303.125 C 169.688 302.940,169.072 302.789,168.750 302.789 C 168.381 302.789,168.453 302.913,168.945 303.125 M184.863 306.519 C 185.239 306.618,185.854 306.618,186.230 306.519 C 186.606 306.421,186.299 306.341,185.547 306.341 C 184.795 306.341,184.487 306.421,184.863 306.519 M213.770 306.519 C 214.146 306.618,214.761 306.618,215.137 306.519 C 215.513 306.421,215.205 306.341,214.453 306.341 C 213.701 306.341,213.394 306.421,213.770 306.519 M188.184 306.916 C 188.667 307.009,189.458 307.009,189.941 306.916 C 190.425 306.823,190.029 306.747,189.063 306.747 C 188.096 306.747,187.700 306.823,188.184 306.916 M210.059 306.916 C 210.542 307.009,211.333 307.009,211.816 306.916 C 212.300 306.823,211.904 306.747,210.938 306.747 C 209.971 306.747,209.575 306.823,210.059 306.916 M193.469 307.319 C 194.496 307.400,196.078 307.399,196.984 307.317 C 197.891 307.235,197.051 307.169,195.117 307.170 C 193.184 307.171,192.442 307.238,193.469 307.319 M204.210 307.318 C 205.128 307.400,206.535 307.399,207.335 307.315 C 208.135 307.231,207.383 307.164,205.664 307.165 C 203.945 307.167,203.291 307.235,204.210 307.318 M289.063 311.914 C 291.526 314.385,293.630 316.406,293.737 316.406 C 293.845 316.406,291.917 314.385,289.453 311.914 C 286.989 309.443,284.886 307.422,284.778 307.422 C 284.671 307.422,286.599 309.443,289.063 311.914 M307.490 313.152 C 307.453 314.047,307.321 315.102,307.197 315.495 C 306.986 316.168,306.999 316.169,307.415 315.522 C 307.658 315.144,307.790 314.089,307.708 313.179 L 307.558 311.523 307.490 313.152 M295.118 317.514 C 295.762 318.231,296.641 318.999,297.070 319.222 C 297.500 319.445,297.676 319.473,297.461 319.285 C 297.246 319.097,296.368 318.328,295.509 317.577 L 293.947 316.211 295.118 317.514 M299.707 320.202 C 300.298 320.291,301.265 320.291,301.855 320.202 C 302.446 320.112,301.963 320.039,300.781 320.039 C 299.600 320.039,299.116 320.112,299.707 320.202 " stroke="none" fill="#9ab5a8" fill-rule="evenodd"></path><path id="path3" d="M196.402 77.633 C 197.753 77.710,199.863 77.709,201.090 77.632 C 202.316 77.555,201.211 77.492,198.633 77.493 C 196.055 77.494,195.051 77.557,196.402 77.633 M189.166 78.015 C 189.759 78.104,190.638 78.102,191.119 78.009 C 191.599 77.917,191.113 77.843,190.039 77.846 C 188.965 77.849,188.572 77.925,189.166 78.015 M206.744 78.015 C 207.337 78.104,208.216 78.102,208.697 78.009 C 209.177 77.917,208.691 77.843,207.617 77.846 C 206.543 77.849,206.150 77.925,206.744 78.015 M185.254 78.394 C 185.630 78.493,186.245 78.493,186.621 78.394 C 186.997 78.296,186.689 78.216,185.938 78.216 C 185.186 78.216,184.878 78.296,185.254 78.394 M211.235 78.401 C 211.721 78.495,212.424 78.491,212.798 78.393 C 213.171 78.296,212.773 78.219,211.914 78.224 C 211.055 78.228,210.749 78.308,211.235 78.401 M152.344 87.695 C 151.807 88.002,151.543 88.254,151.758 88.254 C 151.973 88.254,152.588 88.002,153.125 87.695 C 153.662 87.388,153.926 87.137,153.711 87.137 C 153.496 87.137,152.881 87.388,152.344 87.695 M249.642 88.430 C 250.040 88.795,254.688 91.007,254.688 90.832 C 254.688 90.613,250.175 88.281,249.751 88.281 C 249.601 88.281,249.552 88.348,249.642 88.430 M145.215 91.239 C 143.755 92.031,143.843 92.361,145.313 91.602 C 145.957 91.268,146.484 90.912,146.484 90.810 C 146.484 90.559,146.442 90.573,145.215 91.239 M194.238 92.081 C 195.044 92.166,196.362 92.166,197.168 92.081 C 197.974 91.997,197.314 91.928,195.703 91.928 C 194.092 91.928,193.433 91.997,194.238 92.081 M204.581 92.079 C 205.275 92.165,206.505 92.167,207.316 92.082 C 208.126 91.997,207.559 91.927,206.055 91.925 C 204.551 91.923,203.888 91.993,204.581 92.079 M189.551 92.457 C 189.927 92.555,190.542 92.555,190.918 92.457 C 191.294 92.359,190.986 92.278,190.234 92.278 C 189.482 92.278,189.175 92.359,189.551 92.457 M210.645 92.457 C 211.021 92.555,211.636 92.555,212.012 92.457 C 212.388 92.359,212.080 92.278,211.328 92.278 C 210.576 92.278,210.269 92.359,210.645 92.457 M259.766 93.868 C 259.766 93.957,260.776 94.679,262.012 95.472 C 263.247 96.265,263.777 96.505,263.190 96.005 C 262.030 95.020,259.766 93.606,259.766 93.868 M133.008 99.058 L 131.836 100.065 133.105 99.224 C 133.804 98.762,134.375 98.308,134.375 98.216 C 134.375 97.923,134.210 98.025,133.008 99.058 M267.188 98.950 C 267.188 99.047,267.833 99.618,268.622 100.220 C 269.410 100.821,269.932 101.114,269.782 100.870 C 269.473 100.370,267.188 98.679,267.188 98.950 M129.883 101.410 L 128.320 102.808 129.980 101.567 C 131.409 100.498,131.925 99.983,131.543 100.006 C 131.489 100.009,130.742 100.641,129.883 101.410 M243.783 101.321 C 244.181 101.685,248.828 103.897,248.828 103.722 C 248.828 103.503,244.315 101.172,243.891 101.172 C 243.742 101.172,243.693 101.239,243.783 101.321 M150.684 104.520 C 149.223 105.313,149.312 105.643,150.781 104.883 C 151.426 104.550,151.953 104.193,151.953 104.092 C 151.953 103.840,151.911 103.854,150.684 104.520 M250.000 104.472 C 250.000 104.580,250.527 104.940,251.172 105.273 C 251.816 105.607,252.344 105.792,252.344 105.684 C 252.344 105.577,251.816 105.216,251.172 104.883 C 250.527 104.550,250.000 104.365,250.000 104.472 M123.618 106.738 L 121.680 108.789 123.730 106.851 C 124.858 105.784,125.781 104.862,125.781 104.800 C 125.781 104.508,125.419 104.833,123.618 106.738 M275.781 106.055 C 276.510 106.807,277.194 107.422,277.302 107.422 C 277.409 107.422,276.901 106.807,276.172 106.055 C 275.443 105.303,274.759 104.688,274.651 104.688 C 274.544 104.688,275.052 105.303,275.781 106.055 M253.320 106.452 C 253.750 106.802,254.453 107.261,254.883 107.472 L 255.664 107.856 254.883 107.219 C 254.453 106.870,253.750 106.411,253.320 106.200 L 252.539 105.816 253.320 106.452 M143.844 108.796 C 142.074 109.981,140.625 111.041,140.625 111.152 C 140.625 111.346,146.303 107.658,147.051 106.978 C 147.947 106.163,146.833 106.795,143.844 108.796 M281.055 110.938 C 282.763 112.656,284.249 114.063,284.357 114.063 C 284.464 114.063,283.154 112.656,281.445 110.938 C 279.737 109.219,278.251 107.813,278.143 107.813 C 278.036 107.813,279.346 109.219,281.055 110.938 M119.127 110.840 L 116.992 113.086 119.238 110.951 C 121.325 108.967,121.663 108.594,121.373 108.594 C 121.312 108.594,120.302 109.604,119.127 110.840 M257.031 108.736 C 257.031 108.843,257.559 109.307,258.203 109.766 C 258.848 110.225,259.375 110.512,259.375 110.405 C 259.375 110.297,258.848 109.834,258.203 109.375 C 257.559 108.916,257.031 108.628,257.031 108.736 M138.657 112.528 L 137.305 113.728 138.770 112.677 C 140.064 111.748,140.485 111.328,140.122 111.328 C 140.060 111.328,139.401 111.868,138.657 112.528 M261.523 112.002 C 261.738 112.228,263.057 113.323,264.453 114.437 C 266.516 116.081,266.662 116.155,265.234 114.829 C 263.636 113.344,260.596 111.029,261.523 112.002 M115.234 115.039 C 114.286 116.006,113.597 116.797,113.705 116.797 C 113.812 116.797,114.676 116.006,115.625 115.039 C 116.574 114.072,117.262 113.281,117.155 113.281 C 117.047 113.281,116.183 114.072,115.234 115.039 M232.129 114.722 C 232.505 114.821,233.120 114.821,233.496 114.722 C 233.872 114.624,233.564 114.544,232.813 114.544 C 232.061 114.544,231.753 114.624,232.129 114.722 M285.547 115.820 C 286.276 116.572,286.960 117.188,287.067 117.188 C 287.175 117.188,286.666 116.572,285.938 115.820 C 285.209 115.068,284.524 114.453,284.417 114.453 C 284.310 114.453,284.818 115.068,285.547 115.820 M239.877 116.257 C 240.396 116.927,240.899 117.405,240.995 117.319 C 241.091 117.234,240.667 116.686,240.052 116.101 L 238.934 115.039 239.877 116.257 M270.703 120.117 C 272.736 122.158,274.487 123.828,274.594 123.828 C 274.701 123.828,273.126 122.158,271.094 120.117 C 269.061 118.076,267.310 116.406,267.203 116.406 C 267.096 116.406,268.671 118.076,270.703 120.117 M128.704 121.191 L 124.414 125.586 128.809 121.296 C 131.226 118.936,133.203 116.959,133.203 116.901 C 133.203 116.619,132.689 117.110,128.704 121.191 M274.609 124.341 C 274.609 124.408,275.181 124.979,275.879 125.611 L 277.148 126.758 276.001 125.488 C 274.932 124.305,274.609 124.039,274.609 124.341 M106.641 125.781 C 106.182 126.426,105.894 126.953,106.001 126.953 C 106.109 126.953,106.572 126.426,107.031 125.781 C 107.490 125.137,107.778 124.609,107.670 124.609 C 107.563 124.609,107.100 125.137,106.641 125.781 M195.313 125.977 C 194.346 126.494,193.730 126.918,193.945 126.918 C 194.160 126.918,195.127 126.494,196.094 125.977 C 197.061 125.459,197.676 125.035,197.461 125.035 C 197.246 125.035,196.279 125.459,195.313 125.977 M294.712 127.637 C 295.314 128.550,295.881 129.297,295.972 129.297 C 296.254 129.297,294.759 126.919,294.172 126.435 C 293.867 126.183,294.110 126.724,294.712 127.637 M190.918 128.150 C 189.683 128.788,188.672 129.397,188.672 129.504 C 188.672 129.611,189.727 129.166,191.016 128.516 C 192.305 127.865,193.359 127.247,193.359 127.143 C 193.359 126.882,193.432 126.853,190.918 128.150 M282.422 133.984 C 282.881 134.629,283.344 135.156,283.452 135.156 C 283.559 135.156,283.271 134.629,282.813 133.984 C 282.354 133.340,281.890 132.813,281.783 132.813 C 281.675 132.813,281.963 133.340,282.422 133.984 M180.176 134.420 C 178.844 135.273,178.413 135.845,179.590 135.199 C 180.486 134.706,181.890 133.620,181.641 133.613 C 181.533 133.610,180.874 133.973,180.176 134.420 M176.660 136.758 C 175.747 137.404,175.000 138.020,175.000 138.126 C 175.000 138.232,175.791 137.775,176.758 137.109 C 177.725 136.444,178.516 135.821,178.516 135.723 C 178.516 135.455,178.442 135.496,176.660 136.758 M99.023 137.891 C 98.690 138.535,98.505 139.063,98.613 139.063 C 98.720 139.063,99.081 138.535,99.414 137.891 C 99.747 137.246,99.932 136.719,99.825 136.719 C 99.717 136.719,99.357 137.246,99.023 137.891 M202.734 138.086 C 201.768 138.604,201.152 139.027,201.367 139.027 C 201.582 139.027,202.549 138.604,203.516 138.086 C 204.482 137.568,205.098 137.145,204.883 137.145 C 204.668 137.145,203.701 137.568,202.734 138.086 M302.622 141.196 C 303.632 143.228,304.521 144.828,304.597 144.752 C 304.770 144.579,301.235 137.500,300.975 137.500 C 300.871 137.500,301.612 139.163,302.622 141.196 M197.168 140.846 C 196.147 141.377,195.313 141.899,195.313 142.006 C 195.313 142.113,196.191 141.755,197.266 141.211 C 198.340 140.667,199.219 140.136,199.219 140.032 C 199.219 139.774,199.254 139.760,197.168 140.846 M112.695 142.188 C 112.362 142.832,112.177 143.359,112.285 143.359 C 112.392 143.359,112.753 142.832,113.086 142.188 C 113.419 141.543,113.604 141.016,113.497 141.016 C 113.389 141.016,113.029 141.543,112.695 142.188 M232.122 142.578 C 232.122 143.330,232.202 143.638,232.301 143.262 C 232.399 142.886,232.399 142.271,232.301 141.895 C 232.202 141.519,232.122 141.826,232.122 142.578 M167.557 144.043 L 166.211 145.508 167.676 144.162 C 168.481 143.421,169.141 142.762,169.141 142.697 C 169.141 142.399,168.810 142.680,167.557 144.043 M192.871 143.192 C 191.411 143.984,191.500 144.314,192.969 143.555 C 193.613 143.221,194.141 142.865,194.141 142.763 C 194.141 142.512,194.099 142.526,192.871 143.192 M245.794 144.531 C 245.794 145.283,245.874 145.591,245.972 145.215 C 246.071 144.839,246.071 144.224,245.972 143.848 C 245.874 143.472,245.794 143.779,245.794 144.531 M94.985 145.915 C 94.331 147.352,94.456 147.658,95.163 146.352 C 95.494 145.742,95.691 145.170,95.602 145.081 C 95.512 144.992,95.235 145.367,94.985 145.915 M232.520 146.289 C 232.525 147.148,232.605 147.454,232.698 146.968 C 232.792 146.482,232.788 145.779,232.690 145.406 C 232.592 145.032,232.516 145.430,232.520 146.289 M109.941 147.304 C 109.386 148.400,108.997 149.362,109.077 149.442 C 109.157 149.522,109.695 148.626,110.271 147.450 C 110.848 146.274,111.237 145.313,111.135 145.313 C 111.034 145.313,110.496 146.209,109.941 147.304 M163.075 148.145 L 160.352 150.977 163.184 148.253 C 164.741 146.755,166.016 145.480,166.016 145.421 C 166.016 145.134,165.605 145.514,163.075 148.145 M246.205 148.633 C 246.208 149.707,246.284 150.100,246.374 149.506 C 246.464 148.913,246.461 148.034,246.369 147.553 C 246.276 147.073,246.203 147.559,246.205 148.633 M184.961 148.276 L 183.789 149.283 185.059 148.443 C 185.757 147.981,186.328 147.527,186.328 147.434 C 186.328 147.142,186.163 147.244,184.961 148.276 M232.934 151.367 C 232.936 152.656,233.009 153.137,233.096 152.434 C 233.183 151.732,233.181 150.678,233.092 150.091 C 233.002 149.504,232.931 150.078,232.934 151.367 M291.825 150.195 C 291.825 150.410,292.076 151.025,292.383 151.563 C 292.690 152.100,292.941 152.363,292.941 152.148 C 292.941 151.934,292.690 151.318,292.383 150.781 C 292.076 150.244,291.825 149.980,291.825 150.195 M158.771 152.832 L 157.227 154.492 158.887 152.948 C 160.431 151.512,160.726 151.172,160.431 151.172 C 160.367 151.172,159.620 151.919,158.771 152.832 M246.616 155.078 C 246.616 156.689,246.685 157.349,246.769 156.543 C 246.853 155.737,246.853 154.419,246.769 153.613 C 246.685 152.808,246.616 153.467,246.616 155.078 M156.405 155.566 C 154.694 157.540,154.186 158.203,154.385 158.203 C 154.499 158.203,155.242 157.412,156.034 156.445 C 157.501 154.655,157.792 153.968,156.405 155.566 M171.868 159.277 L 167.773 163.477 171.973 159.382 C 174.282 157.130,176.172 155.240,176.172 155.183 C 176.172 154.901,175.671 155.377,171.868 159.277 M233.352 161.133 C 233.353 163.711,233.416 164.715,233.493 163.364 C 233.569 162.012,233.569 159.903,233.491 158.676 C 233.414 157.449,233.351 158.555,233.352 161.133 M206.250 159.874 C 206.250 159.948,206.821 160.428,207.520 160.939 C 208.305 161.514,208.578 161.608,208.235 161.186 C 207.715 160.546,206.250 159.577,206.250 159.874 M151.648 161.816 C 150.222 163.922,149.914 164.453,150.117 164.453 C 150.207 164.453,150.922 163.486,151.706 162.305 C 152.491 161.123,153.052 160.156,152.952 160.156 C 152.853 160.156,152.266 160.903,151.648 161.816 M198.828 162.305 C 197.879 163.271,197.191 164.063,197.298 164.063 C 197.406 164.063,198.270 163.271,199.219 162.305 C 200.168 161.338,200.856 160.547,200.749 160.547 C 200.641 160.547,199.777 161.338,198.828 162.305 M195.874 165.723 L 194.727 166.992 195.996 165.845 C 197.179 164.775,197.445 164.453,197.143 164.453 C 197.076 164.453,196.505 165.024,195.874 165.723 M246.621 168.750 C 246.621 170.576,246.688 171.323,246.770 170.410 C 246.853 169.497,246.853 168.003,246.770 167.090 C 246.688 166.177,246.621 166.924,246.621 168.750 M163.364 169.434 C 161.526 172.169,161.236 172.656,161.443 172.656 C 161.532 172.656,162.422 171.426,163.422 169.922 C 164.422 168.418,165.158 167.188,165.057 167.188 C 164.956 167.188,164.194 168.198,163.364 169.434 M232.924 170.117 C 232.927 171.191,233.003 171.584,233.093 170.991 C 233.183 170.397,233.180 169.518,233.087 169.038 C 232.995 168.557,232.921 169.043,232.924 170.117 M192.343 170.020 C 190.632 171.993,190.124 172.656,190.322 172.656 C 190.437 172.656,191.179 171.865,191.971 170.898 C 193.439 169.108,193.729 168.421,192.343 170.020 M207.144 171.191 C 205.450 173.405,204.557 174.726,204.891 174.524 C 205.353 174.245,207.947 170.703,207.689 170.703 C 207.595 170.703,207.349 170.923,207.144 171.191 M232.520 174.805 C 232.525 175.664,232.605 175.970,232.698 175.484 C 232.792 174.998,232.788 174.295,232.690 173.921 C 232.592 173.548,232.516 173.945,232.520 174.805 M246.192 175.195 C 246.197 176.055,246.277 176.360,246.370 175.874 C 246.463 175.388,246.460 174.685,246.362 174.312 C 246.264 173.938,246.188 174.336,246.192 175.195 M158.380 177.771 C 158.036 178.435,157.824 179.048,157.909 179.133 C 157.994 179.218,158.355 178.674,158.713 177.925 C 159.516 176.240,159.238 176.111,158.380 177.771 M185.547 178.906 C 185.088 179.551,184.800 180.078,184.908 180.078 C 185.015 180.078,185.479 179.551,185.938 178.906 C 186.396 178.262,186.684 177.734,186.577 177.734 C 186.469 177.734,186.006 178.262,185.547 178.906 M86.049 181.055 C 86.052 182.129,86.128 182.522,86.218 181.928 C 86.308 181.334,86.305 180.456,86.212 179.975 C 86.120 179.495,86.046 179.980,86.049 181.055 M314.153 180.469 C 314.153 181.221,314.234 181.528,314.332 181.152 C 314.430 180.776,314.430 180.161,314.332 179.785 C 314.234 179.409,314.153 179.717,314.153 180.469 M183.594 181.641 C 183.135 182.285,182.847 182.813,182.955 182.813 C 183.062 182.813,183.525 182.285,183.984 181.641 C 184.443 180.996,184.731 180.469,184.624 180.469 C 184.516 180.469,184.053 180.996,183.594 181.641 M100.091 182.422 C 100.091 183.174,100.171 183.481,100.269 183.105 C 100.368 182.729,100.368 182.114,100.269 181.738 C 100.171 181.362,100.091 181.670,100.091 182.422 M300.497 183.594 C 300.497 184.561,300.573 184.956,300.666 184.473 C 300.759 183.989,300.759 183.198,300.666 182.715 C 300.573 182.231,300.497 182.627,300.497 183.594 M197.656 184.375 C 197.197 185.020,196.910 185.547,197.017 185.547 C 197.125 185.547,197.588 185.020,198.047 184.375 C 198.506 183.730,198.793 183.203,198.686 183.203 C 198.579 183.203,198.115 183.730,197.656 184.375 M314.565 184.961 C 314.568 186.035,314.644 186.428,314.733 185.834 C 314.823 185.241,314.821 184.362,314.728 183.881 C 314.635 183.401,314.562 183.887,314.565 184.961 M85.711 192.383 C 85.711 196.680,85.768 198.491,85.838 196.407 C 85.908 194.324,85.908 190.809,85.838 188.595 C 85.769 186.381,85.711 188.086,85.711 192.383 M99.734 187.109 C 99.734 188.506,99.805 189.077,99.892 188.379 C 99.979 187.681,99.979 186.538,99.892 185.840 C 99.805 185.142,99.734 185.713,99.734 187.109 M195.162 188.086 C 194.815 188.623,194.247 189.546,193.899 190.137 L 193.267 191.211 194.052 190.260 C 194.981 189.137,196.212 187.109,195.965 187.109 C 195.871 187.109,195.509 187.549,195.162 188.086 M179.055 188.379 C 177.711 190.660,177.623 190.855,178.308 190.039 C 179.101 189.094,179.785 187.891,179.529 187.891 C 179.427 187.891,179.213 188.110,179.055 188.379 M300.930 192.383 C 300.931 194.961,300.994 195.965,301.071 194.614 C 301.147 193.262,301.147 191.153,301.069 189.926 C 300.992 188.699,300.930 189.805,300.930 192.383 M314.985 192.969 C 314.985 195.010,315.050 195.845,315.131 194.824 C 315.211 193.804,315.211 192.134,315.131 191.113 C 315.050 190.093,314.985 190.928,314.985 192.969 M99.734 198.438 C 99.734 199.834,99.805 200.405,99.892 199.707 C 99.979 199.009,99.979 197.866,99.892 197.168 C 99.805 196.470,99.734 197.041,99.734 198.438 M137.997 199.609 C 137.997 200.576,138.073 200.972,138.166 200.488 C 138.259 200.005,138.259 199.214,138.166 198.730 C 138.073 198.247,137.997 198.643,137.997 199.609 M300.502 200.977 C 300.505 202.051,300.581 202.444,300.671 201.850 C 300.761 201.256,300.758 200.377,300.666 199.897 C 300.573 199.417,300.499 199.902,300.502 200.977 M314.560 201.172 C 314.560 202.139,314.636 202.534,314.729 202.051 C 314.822 201.567,314.822 200.776,314.729 200.293 C 314.636 199.810,314.560 200.205,314.560 201.172 M151.661 202.148 C 151.665 203.008,151.745 203.313,151.839 202.827 C 151.932 202.342,151.929 201.638,151.831 201.265 C 151.733 200.892,151.657 201.289,151.661 202.148 M224.691 203.333 C 224.005 204.722,223.529 205.859,223.631 205.859 C 223.893 205.859,226.254 201.124,226.080 200.950 C 226.001 200.871,225.376 201.943,224.691 203.333 M86.036 202.930 C 86.040 203.789,86.120 204.095,86.214 203.609 C 86.307 203.123,86.304 202.420,86.206 202.046 C 86.108 201.673,86.032 202.070,86.036 202.930 M100.091 203.125 C 100.091 203.877,100.171 204.185,100.269 203.809 C 100.368 203.433,100.368 202.817,100.269 202.441 C 100.171 202.065,100.091 202.373,100.091 203.125 M137.641 207.031 C 137.641 209.072,137.707 209.907,137.787 208.887 C 137.868 207.866,137.868 206.196,137.787 205.176 C 137.707 204.155,137.641 204.990,137.641 207.031 M184.961 204.688 C 184.628 205.332,184.443 205.859,184.550 205.859 C 184.658 205.859,185.018 205.332,185.352 204.688 C 185.685 204.043,185.870 203.516,185.762 203.516 C 185.655 203.516,185.294 204.043,184.961 204.688 M300.091 205.078 C 300.091 205.830,300.171 206.138,300.269 205.762 C 300.368 205.386,300.368 204.771,300.269 204.395 C 300.171 204.019,300.091 204.326,300.091 205.078 M168.945 205.469 C 168.612 206.113,168.427 206.641,168.535 206.641 C 168.642 206.641,169.003 206.113,169.336 205.469 C 169.669 204.824,169.854 204.297,169.747 204.297 C 169.639 204.297,169.279 204.824,168.945 205.469 M151.311 209.180 C 151.309 211.113,151.375 211.954,151.457 211.047 C 151.539 210.140,151.540 208.558,151.459 207.531 C 151.379 206.504,151.312 207.246,151.311 209.180 M183.398 207.422 C 183.065 208.066,182.880 208.594,182.988 208.594 C 183.095 208.594,183.456 208.066,183.789 207.422 C 184.122 206.777,184.307 206.250,184.200 206.250 C 184.092 206.250,183.732 206.777,183.398 207.422 M238.345 207.243 C 237.690 208.680,237.815 208.986,238.523 207.680 C 238.853 207.070,239.051 206.498,238.961 206.409 C 238.872 206.320,238.594 206.695,238.345 207.243 M165.214 212.541 C 164.124 214.712,163.295 216.550,163.371 216.627 C 163.447 216.703,164.424 214.926,165.542 212.679 C 166.659 210.432,167.488 208.594,167.384 208.594 C 167.280 208.594,166.303 210.370,165.214 212.541 M181.445 210.938 C 181.112 211.582,180.927 212.109,181.035 212.109 C 181.142 212.109,181.503 211.582,181.836 210.938 C 182.169 210.293,182.354 209.766,182.247 209.766 C 182.139 209.766,181.779 210.293,181.445 210.938 M235.742 212.500 C 235.409 213.145,235.224 213.672,235.331 213.672 C 235.439 213.672,235.800 213.145,236.133 212.500 C 236.466 211.855,236.651 211.328,236.544 211.328 C 236.436 211.328,236.075 211.855,235.742 212.500 M137.997 214.453 C 137.997 215.420,138.073 215.815,138.166 215.332 C 138.259 214.849,138.259 214.058,138.166 213.574 C 138.073 213.091,137.997 213.486,137.997 214.453 M176.932 219.573 C 175.414 222.604,174.233 225.145,174.308 225.219 C 174.383 225.294,175.711 222.815,177.259 219.709 C 178.808 216.603,179.989 214.063,179.884 214.063 C 179.779 214.063,178.451 216.542,176.932 219.573 M151.669 216.016 C 151.669 216.982,151.745 217.378,151.838 216.895 C 151.931 216.411,151.931 215.620,151.838 215.137 C 151.745 214.653,151.669 215.049,151.669 216.016 M212.102 220.605 L 208.398 224.414 212.207 220.711 C 215.744 217.271,216.193 216.797,215.910 216.797 C 215.852 216.797,214.138 218.511,212.102 220.605 M161.392 220.525 C 160.737 221.961,160.862 222.267,161.570 220.962 C 161.900 220.352,162.097 219.780,162.008 219.690 C 161.919 219.601,161.641 219.976,161.392 220.525 M230.249 220.965 C 229.647 221.754,229.355 222.276,229.598 222.125 C 230.099 221.816,231.790 219.531,231.518 219.531 C 231.422 219.531,230.851 220.177,230.249 220.965 M225.958 226.270 L 224.414 227.930 226.074 226.386 C 227.618 224.950,227.914 224.609,227.618 224.609 C 227.555 224.609,226.807 225.356,225.958 226.270 M202.930 228.355 L 201.758 229.361 203.027 228.521 C 203.726 228.059,204.297 227.605,204.297 227.512 C 204.297 227.220,204.131 227.322,202.930 228.355 M172.329 229.118 C 171.675 230.555,171.799 230.861,172.507 229.555 C 172.838 228.945,173.035 228.373,172.946 228.284 C 172.856 228.195,172.579 228.570,172.329 229.118 M223.218 229.395 L 222.070 230.664 223.340 229.517 C 224.523 228.447,224.789 228.125,224.487 228.125 C 224.420 228.125,223.849 228.696,223.218 229.395 M219.708 232.520 L 218.164 234.180 219.824 232.636 C 221.368 231.200,221.664 230.859,221.368 230.859 C 221.305 230.859,220.557 231.606,219.708 232.520 M156.287 232.302 C 155.894 233.164,155.733 233.254,155.412 232.792 C 155.074 232.306,155.040 232.305,155.170 232.788 C 155.432 233.755,156.096 233.656,156.588 232.577 C 156.848 232.006,156.995 231.474,156.914 231.393 C 156.833 231.313,156.551 231.722,156.287 232.302 M107.840 231.836 C 107.840 232.051,108.091 232.666,108.398 233.203 C 108.705 233.740,108.957 234.004,108.957 233.789 C 108.957 233.574,108.705 232.959,108.398 232.422 C 108.091 231.885,107.840 231.621,107.840 231.836 M195.996 232.645 C 194.536 233.438,194.625 233.768,196.094 233.008 C 196.738 232.675,197.266 232.318,197.266 232.217 C 197.266 231.965,197.224 231.979,195.996 232.645 M216.016 235.600 L 214.258 237.192 215.913 235.950 C 217.352 234.870,218.276 233.959,217.894 233.996 C 217.828 234.002,216.982 234.724,216.016 235.600 M191.016 235.352 C 190.049 235.869,189.397 236.301,189.566 236.310 C 189.981 236.334,192.969 234.799,192.969 234.562 C 192.969 234.304,192.985 234.297,191.016 235.352 M210.437 239.617 C 208.131 241.213,207.582 241.773,209.283 240.793 C 210.595 240.038,212.848 238.304,212.500 238.317 C 212.393 238.321,211.464 238.906,210.437 239.617 M288.477 240.625 C 288.143 241.270,287.958 241.797,288.066 241.797 C 288.173 241.797,288.534 241.270,288.867 240.625 C 289.200 239.980,289.385 239.453,289.278 239.453 C 289.170 239.453,288.810 239.980,288.477 240.625 M112.695 241.797 C 113.029 242.441,113.389 242.969,113.497 242.969 C 113.604 242.969,113.419 242.441,113.086 241.797 C 112.753 241.152,112.392 240.625,112.285 240.625 C 112.177 240.625,112.362 241.152,112.695 241.797 M96.875 241.938 C 96.875 242.362,99.206 246.875,99.425 246.875 C 99.533 246.875,99.070 245.776,98.397 244.434 C 97.121 241.888,96.875 241.485,96.875 241.938 M302.615 243.950 C 302.258 244.699,302.046 245.313,302.145 245.313 C 302.412 245.313,303.598 242.921,303.419 242.742 C 303.334 242.657,302.973 243.201,302.615 243.950 M201.074 245.339 C 200.269 245.764,199.609 246.200,199.609 246.306 C 199.609 246.413,200.312 246.142,201.172 245.703 C 202.031 245.265,202.734 244.822,202.734 244.719 C 202.734 244.463,202.732 244.464,201.074 245.339 M241.313 247.151 C 241.799 247.245,242.502 247.241,242.876 247.143 C 243.249 247.046,242.852 246.969,241.992 246.974 C 241.133 246.978,240.827 247.058,241.313 247.151 M300.195 248.438 C 299.862 249.082,299.677 249.609,299.785 249.609 C 299.892 249.609,300.253 249.082,300.586 248.438 C 300.919 247.793,301.104 247.266,300.997 247.266 C 300.889 247.266,300.529 247.793,300.195 248.438 M247.852 250.391 C 248.910 251.465,249.863 252.344,249.971 252.344 C 250.078 252.344,249.300 251.465,248.242 250.391 C 247.184 249.316,246.231 248.438,246.123 248.438 C 246.016 248.438,246.793 249.316,247.852 250.391 M192.578 249.609 C 191.826 250.021,191.387 250.358,191.602 250.358 C 191.816 250.358,192.607 250.021,193.359 249.609 C 194.111 249.198,194.551 248.861,194.336 248.861 C 194.121 248.861,193.330 249.198,192.578 249.609 M282.031 250.781 C 281.572 251.426,281.285 251.953,281.392 251.953 C 281.500 251.953,281.963 251.426,282.422 250.781 C 282.881 250.137,283.168 249.609,283.061 249.609 C 282.954 249.609,282.490 250.137,282.031 250.781 M119.195 251.775 C 119.897 252.752,120.733 253.763,121.053 254.022 C 121.374 254.280,120.878 253.481,119.951 252.246 C 117.956 249.588,117.356 249.214,119.195 251.775 M235.255 253.711 C 235.259 254.570,235.339 254.876,235.433 254.390 C 235.526 253.904,235.522 253.201,235.425 252.827 C 235.327 252.454,235.250 252.852,235.255 253.711 M279.688 253.906 C 279.007 254.766,278.538 255.469,278.645 255.469 C 278.753 255.469,279.397 254.766,280.078 253.906 C 280.759 253.047,281.228 252.344,281.120 252.344 C 281.013 252.344,280.368 253.047,279.688 253.906 M256.641 259.570 C 260.181 263.115,263.165 266.016,263.272 266.016 C 263.380 266.016,260.571 263.115,257.031 259.570 C 253.491 256.025,250.507 253.125,250.400 253.125 C 250.292 253.125,253.101 256.025,256.641 259.570 M294.531 257.422 C 294.072 258.066,293.785 258.594,293.892 258.594 C 294.000 258.594,294.463 258.066,294.922 257.422 C 295.381 256.777,295.668 256.250,295.561 256.250 C 295.454 256.250,294.990 256.777,294.531 257.422 M123.047 256.763 C 123.047 256.830,123.618 257.401,124.316 258.032 L 125.586 259.180 124.439 257.910 C 123.369 256.727,123.047 256.461,123.047 256.763 M168.066 256.910 C 168.442 257.008,169.058 257.008,169.434 256.910 C 169.810 256.812,169.502 256.731,168.750 256.731 C 167.998 256.731,167.690 256.812,168.066 256.910 M162.760 257.292 C 162.617 257.435,162.503 257.743,162.506 257.975 C 162.510 258.246,162.617 258.233,162.805 257.937 C 162.967 257.683,163.887 257.406,164.850 257.322 L 166.602 257.168 164.811 257.099 C 163.826 257.062,162.904 257.148,162.760 257.292 M274.609 259.961 C 273.661 260.928,272.972 261.719,273.080 261.719 C 273.187 261.719,274.051 260.928,275.000 259.961 C 275.949 258.994,276.637 258.203,276.530 258.203 C 276.422 258.203,275.558 258.994,274.609 259.961 M292.358 260.418 C 291.757 261.207,291.464 261.729,291.708 261.578 C 292.208 261.269,293.899 258.984,293.628 258.984 C 293.531 258.984,292.960 259.630,292.358 260.418 M129.492 263.672 C 131.848 266.035,133.864 267.969,133.971 267.969 C 134.078 267.969,132.239 266.035,129.883 263.672 C 127.527 261.309,125.511 259.375,125.404 259.375 C 125.297 259.375,127.136 261.309,129.492 263.672 M240.625 262.695 C 241.792 263.877,242.835 264.844,242.942 264.844 C 243.049 264.844,242.183 263.877,241.016 262.695 C 239.849 261.514,238.806 260.547,238.699 260.547 C 238.591 260.547,239.458 261.514,240.625 262.695 M271.271 263.770 L 269.727 265.430 271.387 263.886 C 272.931 262.450,273.226 262.109,272.931 262.109 C 272.867 262.109,272.120 262.856,271.271 263.770 M244.922 267.383 C 246.089 268.564,247.132 269.531,247.239 269.531 C 247.346 269.531,246.479 268.564,245.313 267.383 C 244.146 266.201,243.103 265.234,242.995 265.234 C 242.888 265.234,243.755 266.201,244.922 267.383 M112.109 265.747 C 112.109 265.814,112.681 266.386,113.379 267.017 L 114.648 268.164 113.501 266.895 C 112.432 265.711,112.109 265.445,112.109 265.747 M267.188 267.260 C 266.221 268.141,265.781 268.676,266.211 268.449 C 266.946 268.061,269.485 265.606,269.116 265.641 C 269.022 265.650,268.154 266.378,267.188 267.260 M286.307 267.871 L 284.961 269.336 286.426 267.990 C 287.789 266.737,288.070 266.406,287.772 266.406 C 287.707 266.406,287.047 267.065,286.307 267.871 M134.726 268.477 C 135.357 269.272,139.063 272.424,139.063 272.165 C 139.063 272.070,137.964 271.046,136.621 269.890 C 135.278 268.734,134.425 268.098,134.726 268.477 M118.352 272.363 C 122.156 276.264,122.656 276.740,122.656 276.458 C 122.656 276.400,120.767 274.511,118.457 272.259 L 114.258 268.164 118.352 272.363 M248.812 271.582 C 249.770 272.603,250.605 273.438,250.667 273.438 C 250.961 273.438,250.650 273.087,248.926 271.468 L 247.070 269.727 248.812 271.582 M280.169 274.323 C 277.756 276.743,275.781 278.897,275.781 279.110 C 275.781 279.323,281.011 284.682,287.402 291.018 L 299.023 302.539 287.598 291.013 C 281.313 284.674,276.172 279.315,276.172 279.105 C 276.172 278.895,278.147 276.743,280.560 274.323 C 282.974 271.902,284.860 269.922,284.753 269.922 C 284.645 269.922,282.583 271.902,280.169 274.323 M251.953 275.195 C 252.682 275.947,253.366 276.563,253.474 276.563 C 253.581 276.563,253.073 275.947,252.344 275.195 C 251.615 274.443,250.931 273.828,250.823 273.828 C 250.716 273.828,251.224 274.443,251.953 275.195 M143.555 275.558 C 144.851 276.678,145.856 276.726,145.952 275.671 C 145.996 275.186,145.960 275.158,145.830 275.578 C 145.582 276.376,145.081 276.326,143.615 275.358 L 142.383 274.545 143.555 275.558 M123.551 277.206 C 123.888 277.758,128.516 281.790,128.516 281.532 C 128.516 281.429,127.337 280.313,125.897 279.052 C 124.457 277.790,123.401 276.959,123.551 277.206 M242.188 283.398 C 241.650 283.705,241.387 283.957,241.602 283.957 C 241.816 283.957,242.432 283.705,242.969 283.398 C 243.506 283.091,243.770 282.840,243.555 282.840 C 243.340 282.840,242.725 283.091,242.188 283.398 M133.984 285.689 C 133.984 285.796,134.512 286.260,135.156 286.719 C 135.801 287.178,136.328 287.465,136.328 287.358 C 136.328 287.250,135.801 286.787,135.156 286.328 C 134.512 285.869,133.984 285.582,133.984 285.689 M263.063 288.465 C 262.378 288.984,262.427 288.994,263.578 288.573 L 264.852 288.107 269.242 292.393 L 273.633 296.680 269.343 292.285 C 264.969 287.805,264.395 287.456,263.063 288.465 M258.496 290.845 C 257.046 291.589,255.859 292.286,255.859 292.393 C 255.859 292.500,257.090 291.968,258.594 291.211 C 260.098 290.454,261.328 289.748,261.328 289.644 C 261.328 289.382,261.438 289.335,258.496 290.845 M142.969 291.581 C 142.969 291.689,143.496 292.050,144.141 292.383 C 144.785 292.716,145.313 292.901,145.313 292.794 C 145.313 292.686,144.785 292.325,144.141 291.992 C 143.496 291.659,142.969 291.474,142.969 291.581 M210.645 292.457 C 211.021 292.555,211.636 292.555,212.012 292.457 C 212.388 292.359,212.080 292.278,211.328 292.278 C 210.576 292.278,210.269 292.359,210.645 292.457 M190.337 292.858 C 190.931 292.948,191.810 292.946,192.291 292.853 C 192.771 292.760,192.285 292.687,191.211 292.690 C 190.137 292.693,189.744 292.769,190.337 292.858 M206.152 292.854 C 206.636 292.947,207.427 292.947,207.910 292.854 C 208.394 292.761,207.998 292.685,207.031 292.685 C 206.064 292.685,205.669 292.761,206.152 292.854 M145.703 293.163 C 145.703 293.422,152.782 296.958,152.955 296.785 C 153.032 296.708,151.431 295.819,149.399 294.810 C 147.366 293.800,145.703 293.059,145.703 293.163 M197.378 293.258 C 198.621 293.336,200.554 293.335,201.674 293.256 C 202.795 293.178,201.777 293.114,199.414 293.115 C 197.051 293.116,196.134 293.180,197.378 293.258 M250.000 295.117 C 248.174 296.062,246.855 296.836,247.070 296.836 C 247.285 296.836,248.955 296.062,250.781 295.117 C 252.607 294.172,253.926 293.399,253.711 293.399 C 253.496 293.399,251.826 294.172,250.000 295.117 M278.320 301.172 C 280.676 303.535,282.692 305.469,282.799 305.469 C 282.907 305.469,281.067 303.535,278.711 301.172 C 276.355 298.809,274.339 296.875,274.232 296.875 C 274.125 296.875,275.964 298.809,278.320 301.172 M155.078 297.852 C 155.615 298.159,156.230 298.410,156.445 298.410 C 156.660 298.410,156.396 298.159,155.859 297.852 C 155.322 297.545,154.707 297.293,154.492 297.293 C 154.277 297.293,154.541 297.545,155.078 297.852 M302.539 305.859 C 304.248 307.578,305.734 308.984,305.841 308.984 C 305.948 308.984,304.638 307.578,302.930 305.859 C 301.221 304.141,299.735 302.734,299.628 302.734 C 299.520 302.734,300.830 304.141,302.539 305.859 M187.798 306.526 C 188.283 306.620,188.987 306.616,189.360 306.518 C 189.733 306.421,189.336 306.344,188.477 306.349 C 187.617 306.353,187.312 306.433,187.798 306.526 M192.487 306.924 C 193.190 307.011,194.244 307.009,194.831 306.920 C 195.418 306.831,194.844 306.759,193.555 306.762 C 192.266 306.764,191.785 306.837,192.487 306.924 M205.957 306.920 C 206.548 307.010,207.515 307.010,208.105 306.920 C 208.696 306.831,208.213 306.758,207.031 306.758 C 205.850 306.758,205.366 306.831,205.957 306.920 M288.086 310.547 C 290.226 312.695,292.065 314.453,292.173 314.453 C 292.280 314.453,290.617 312.695,288.477 310.547 C 286.336 308.398,284.497 306.641,284.390 306.641 C 284.282 306.641,285.946 308.398,288.086 310.547 M294.727 316.743 C 295.586 317.666,296.641 318.607,297.070 318.834 C 297.500 319.061,297.764 319.167,297.656 319.069 C 293.851 315.616,293.183 315.086,294.727 316.743 " stroke="none" fill="#7c9486" fill-rule="evenodd"></path><path id="path4" d="M199.503 92.079 C 200.196 92.165,201.427 92.167,202.237 92.082 C 203.048 91.997,202.480 91.927,200.977 91.925 C 199.473 91.923,198.810 91.993,199.503 92.079 M270.884 263.770 L 268.945 265.820 270.996 263.882 C 272.902 262.081,273.226 261.719,272.935 261.719 C 272.873 261.719,271.950 262.642,270.884 263.770 M199.519 307.314 C 200.221 307.401,201.275 307.399,201.862 307.310 C 202.449 307.221,201.875 307.150,200.586 307.152 C 199.297 307.154,198.817 307.227,199.519 307.314 " stroke="none" fill="#809c8c" fill-rule="evenodd"></path></g></svg>